<?xml version="1.0" encoding="utf-8"?>
<!-- Generator: Adobe Illustrator 16.0.1, SVG Export Plug-In . SVG Version: 6.00 Build 0)  -->
<!DOCTYPE svg PUBLIC "-//W3C//DTD SVG 1.1//EN" "http://www.w3.org/Graphics/SVG/1.1/DTD/svg11.dtd">
<svg version="1.1" xmlns="http://www.w3.org/2000/svg" xmlns:xlink="http://www.w3.org/1999/xlink" x="0px" y="0px" width="106px"
	 height="98px" viewBox="0 0 106 98" enable-background="new 0 0 106 98" xml:space="preserve">
<symbol  id="Deleted_Symbol" viewBox="-5.5 -8.5 11 17">
	<path d="M-3.5,6.5h-1v-11h1v1h1v1h1v-1h1v-2h1v-2h2v2h-1v2h-1v2h3v1h-1v1h-1v1h-1v1h-1v1h-1v1h-1v1h-1V6.5z"/>
	<g>
		<polygon fill="#FFFFFF" points="5.5,-2.5 5.5,-1.5 4.5,-1.5 4.5,-0.5 3.5,-0.5 3.5,-1.5 0.5,-1.5 0.5,-3.5 1.5,-3.5 1.5,-2.5 		
			"/>
		<polygon fill="#FFFFFF" points="1.5,1.5 1.5,2.5 0.5,2.5 0.5,1.5 		"/>
		<polygon fill="#FFFFFF" points="0.5,2.5 0.5,3.5 -0.5,3.5 -0.5,2.5 		"/>
		<polygon fill="#FFFFFF" points="-1.5,4.5 -1.5,5.5 -2.5,5.5 -2.5,4.5 		"/>
		<polygon fill="#FFFFFF" points="-2.5,5.5 -2.5,6.5 -3.5,6.5 -3.5,5.5 		"/>
		<polygon fill="#FFFFFF" points="-4.5,6.5 -3.5,6.5 -3.5,7.5 -4.5,7.5 -4.5,8.5 -5.5,8.5 -5.5,-6.5 -4.5,-6.5 -4.5,-5.5 -3.5,-5.5 
			-3.5,-4.5 -4.5,-4.5 		"/>
		<polygon fill="#FFFFFF" points="-0.5,3.5 -0.5,4.5 -1.5,4.5 -1.5,3.5 		"/>
		<polygon fill="#FFFFFF" points="-1.5,-3.5 -1.5,-5.5 -0.5,-5.5 -0.5,-3.5 		"/>
		<polygon fill="#FFFFFF" points="-2.5,-2.5 -2.5,-3.5 -1.5,-3.5 -1.5,-2.5 		"/>
		<polygon fill="#FFFFFF" points="-3.5,-4.5 -2.5,-4.5 -2.5,-3.5 -3.5,-3.5 		"/>
		<polygon fill="#FFFFFF" points="3.5,-0.5 3.5,0.5 2.5,0.5 2.5,-0.5 		"/>
		<polygon fill="#FFFFFF" points="2.5,0.5 2.5,1.5 1.5,1.5 1.5,0.5 		"/>
		<polygon fill="#FFFFFF" points="2.5,-5.5 2.5,-3.5 1.5,-3.5 1.5,-5.5 		"/>
		<polygon fill="#FFFFFF" points="0.5,-7.5 0.5,-8.5 3.5,-8.5 3.5,-5.5 2.5,-5.5 2.5,-7.5 		"/>
		<polygon fill="#FFFFFF" points="-0.5,-5.5 -0.5,-7.5 0.5,-7.5 0.5,-5.5 		"/>
	</g>
</symbol>
<pattern  x="-835.116" y="-290.607" width="8.485" height="8.484" patternUnits="userSpaceOnUse" id="cross_hatching" viewBox="9.547 -18.03 8.485 8.484" overflow="visible">
	<g>
		<polygon fill="none" points="9.547,-18.03 18.032,-18.03 18.032,-9.545 9.547,-9.545 		"/>
		<line fill="none" stroke="#000000" stroke-width="3" x1="18.03" y1="-1.061" x2="26.517" y2="-9.545"/>
		<line fill="none" stroke="#000000" stroke-width="3" x1="9.546" y1="-1.061" x2="18.032" y2="-9.545"/>
		<line fill="none" stroke="#000000" stroke-width="3" x1="1.061" y1="-1.061" x2="9.547" y2="-9.545"/>
		<line fill="none" stroke="#000000" stroke-width="3" x1="18.03" y1="-9.545" x2="26.517" y2="-18.03"/>
		<line fill="none" stroke="#000000" stroke-width="3" x1="9.546" y1="-9.545" x2="18.032" y2="-18.03"/>
		<line fill="none" stroke="#000000" stroke-width="3" x1="1.061" y1="-9.545" x2="9.547" y2="-18.03"/>
		<line fill="none" stroke="#000000" stroke-width="3" x1="18.03" y1="-18.029" x2="26.517" y2="-26.514"/>
		<line fill="none" stroke="#000000" stroke-width="3" x1="9.546" y1="-18.029" x2="18.032" y2="-26.514"/>
		<line fill="none" stroke="#000000" stroke-width="3" x1="1.061" y1="-18.029" x2="9.547" y2="-26.514"/>
	</g>
</pattern>
<g id="BACKGROUND">
</g>
<g id="GRAPHICS">
</g>
<g id="Layer_13">
	<g>
		<path fill="#333333" d="M50.366,25.614h-0.531c-2.555,0-3.871,0.471-4.779,4.847l-9.693,46.671h-2.988l-6.042-30.539h-0.065
			l-6.174,30.539h-2.988L7.611,29.265c-0.604-3.051-1.486-3.651-4.183-3.651H3.229v-1.991h14.406v1.991H17.37
			c-2.07,0-2.588,0.731-2.588,2.125c0,0.318-0.008,0.806,0.065,1.194l6.042,32.398h0.133l3.916-21.311l-2.057-10.755
			c-0.511-2.659-1.115-3.651-3.254-3.651h-0.332v-1.991h14.207v1.991h-0.266c-2.652,0-3.183,0.891-3.187,2.723
			c-0.001,0.49,0.081,1.051,0.198,1.66l6.042,30.937h0.134l5.709-31.005c0.083-0.448,0.133-0.872,0.133-1.26
			c0-2.125-0.706-3.055-3.519-3.055H38.35v-1.991h12.017V25.614z"/>
		<path fill="#333333" d="M75.106,64.054c0,9.398-5.693,13.278-12.348,13.278c-4.834,0-7.039-1.593-9.361-3.187l-1.263,2.789h-1.394
			V58.676h1.792v0.532c0,12.813,6.448,15.734,9.693,15.734c4.923,0,7.103-2.831,7.103-8.431c0-6.108-3.836-10.556-9.359-14.738
			c-5.008-3.792-9.627-8.435-9.627-16.199c0-7.999,4.928-12.149,10.822-12.149c4.901,0,7.186,1.992,8.496,3.121l1.328-2.589h1.329
			v18.323h-1.792v-0.531c0-9.958-2.988-15.935-8.896-15.935c-3.744,0-5.71,2.638-5.71,6.838c0,4.998,2.95,7.831,8.431,12.083
			C70.427,49.447,75.106,54.404,75.106,64.054z"/>
		<path fill="#333333" d="M103.8,25.614h-1.327c-1.8,0-2.923,0.859-2.923,3.055v37.044c0,8.314-5.215,11.419-11.883,11.419
			c-4.771,0-9.561-3.903-9.561-11.419c0-4.039,2.512-5.775,4.514-5.775c2.078,0,3.586,1.475,3.586,3.984
			c0,3.205-1.875,4.553-4.315,4.913c0,2.728,2.104,5.908,5.71,5.908c3.457,0,4.647-1.915,4.647-7.634V28.668
			c0-2.194-1.057-3.055-2.854-3.055h-1.395v-1.991H103.8V25.614z"/>
	</g>
	<polygon display="none" fill="#333333" points="31.69,92.699 96.797,50.673 31.69,8.646 	"/>
	<g display="none">
		<rect x="23.899" y="15.284" display="inline" fill="#333333" width="25" height="68"/>
		<rect x="61.399" y="15.284" display="inline" fill="#333333" width="25" height="68"/>
	</g>
</g>
</svg>
