<?xml version="1.0" encoding="utf-8"?>
<!-- Generator: Adobe Illustrator 16.0.1, SVG Export Plug-In . SVG Version: 6.00 Build 0)  -->
<!DOCTYPE svg PUBLIC "-//W3C//DTD SVG 1.1//EN" "http://www.w3.org/Graphics/SVG/1.1/DTD/svg11.dtd">
<svg version="1.1" xmlns="http://www.w3.org/2000/svg" xmlns:xlink="http://www.w3.org/1999/xlink" x="0px" y="0px"
	 width="133.667px" height="166.667px" viewBox="0 0 133.667 166.667" enable-background="new 0 0 133.667 166.667"
	 xml:space="preserve">
<symbol  id="Deleted_Symbol" viewBox="-5.5 -8.5 11 17">
	<path d="M-3.5,6.5h-1v-11h1v1h1v1h1v-1h1v-2h1v-2h2v2h-1v2h-1v2h3v1h-1v1h-1v1h-1v1h-1v1h-1v1h-1v1h-1V6.5z"/>
	<g>
		<polygon fill="#FFFFFF" points="5.5,-2.5 5.5,-1.5 4.5,-1.5 4.5,-0.5 3.5,-0.5 3.5,-1.5 0.5,-1.5 0.5,-3.5 1.5,-3.5 1.5,-2.5 		
			"/>
		<polygon fill="#FFFFFF" points="1.5,1.5 1.5,2.5 0.5,2.5 0.5,1.5 		"/>
		<polygon fill="#FFFFFF" points="0.5,2.5 0.5,3.5 -0.5,3.5 -0.5,2.5 		"/>
		<polygon fill="#FFFFFF" points="-1.5,4.5 -1.5,5.5 -2.5,5.5 -2.5,4.5 		"/>
		<polygon fill="#FFFFFF" points="-2.5,5.5 -2.5,6.5 -3.5,6.5 -3.5,5.5 		"/>
		<polygon fill="#FFFFFF" points="-4.5,6.5 -3.5,6.5 -3.5,7.5 -4.5,7.5 -4.5,8.5 -5.5,8.5 -5.5,-6.5 -4.5,-6.5 -4.5,-5.5 -3.5,-5.5 
			-3.5,-4.5 -4.5,-4.5 		"/>
		<polygon fill="#FFFFFF" points="-0.5,3.5 -0.5,4.5 -1.5,4.5 -1.5,3.5 		"/>
		<polygon fill="#FFFFFF" points="-1.5,-3.5 -1.5,-5.5 -0.5,-5.5 -0.5,-3.5 		"/>
		<polygon fill="#FFFFFF" points="-2.5,-2.5 -2.5,-3.5 -1.5,-3.5 -1.5,-2.5 		"/>
		<polygon fill="#FFFFFF" points="-3.5,-4.5 -2.5,-4.5 -2.5,-3.5 -3.5,-3.5 		"/>
		<polygon fill="#FFFFFF" points="3.5,-0.5 3.5,0.5 2.5,0.5 2.5,-0.5 		"/>
		<polygon fill="#FFFFFF" points="2.5,0.5 2.5,1.5 1.5,1.5 1.5,0.5 		"/>
		<polygon fill="#FFFFFF" points="2.5,-5.5 2.5,-3.5 1.5,-3.5 1.5,-5.5 		"/>
		<polygon fill="#FFFFFF" points="0.5,-7.5 0.5,-8.5 3.5,-8.5 3.5,-5.5 2.5,-5.5 2.5,-7.5 		"/>
		<polygon fill="#FFFFFF" points="-0.5,-5.5 -0.5,-7.5 0.5,-7.5 0.5,-5.5 		"/>
	</g>
</symbol>
<pattern  x="-672.449" y="78.727" width="8.485" height="8.484" patternUnits="userSpaceOnUse" id="cross_hatching" viewBox="9.547 -18.03 8.485 8.484" overflow="visible">
	<g>
		<polygon fill="none" points="9.547,-18.03 18.032,-18.03 18.032,-9.545 9.547,-9.545 		"/>
		<line fill="none" stroke="#000000" stroke-width="3" x1="18.03" y1="-1.061" x2="26.517" y2="-9.545"/>
		<line fill="none" stroke="#000000" stroke-width="3" x1="9.546" y1="-1.061" x2="18.032" y2="-9.545"/>
		<line fill="none" stroke="#000000" stroke-width="3" x1="1.061" y1="-1.061" x2="9.547" y2="-9.545"/>
		<line fill="none" stroke="#000000" stroke-width="3" x1="18.03" y1="-9.545" x2="26.517" y2="-18.03"/>
		<line fill="none" stroke="#000000" stroke-width="3" x1="9.546" y1="-9.545" x2="18.032" y2="-18.03"/>
		<line fill="none" stroke="#000000" stroke-width="3" x1="1.061" y1="-9.545" x2="9.547" y2="-18.03"/>
		<line fill="none" stroke="#000000" stroke-width="3" x1="18.03" y1="-18.029" x2="26.517" y2="-26.514"/>
		<line fill="none" stroke="#000000" stroke-width="3" x1="9.546" y1="-18.029" x2="18.032" y2="-26.514"/>
		<line fill="none" stroke="#000000" stroke-width="3" x1="1.061" y1="-18.029" x2="9.547" y2="-26.514"/>
	</g>
</pattern>
<g id="BACKGROUND">
</g>
<g id="GRAPHICS">
	<circle fill="none" stroke="#C7C8CA" stroke-width="2" stroke-miterlimit="10" cx="66.364" cy="19.726" r="17.833"/>
	<circle fill="none" stroke="#C7C8CA" stroke-width="2" stroke-miterlimit="10" cx="114.427" cy="19.726" r="17.833"/>
	<path fill-rule="evenodd" clip-rule="evenodd" fill="#0079AE" d="M123.555,9.986v18.879c0,0.305-0.249,0.555-0.555,0.555h-2.221
		c-0.307,0-0.556-0.25-0.556-0.555v-8.65l-11.608,9.091c-0.242,0.187-0.607,0.089-0.607-0.216V9.741
		c0-0.306,0.365-0.402,0.607-0.215l11.608,9.059V9.986c0-0.306,0.249-0.556,0.556-0.556H123
		C123.306,9.43,123.555,9.68,123.555,9.986"/>
	<path fill="#0079AE" d="M76.023,15.658c0,0.292-0.236,0.571-0.523,0.618l-0.537,0.09v4.077c0,4.146-3.186,6.412-5.309,7.097v1.245
		l3.185,1.448v1.878H61.162v-1.878l3.186-1.448V27.54c-2.123-0.686-5.308-2.951-5.308-7.097v-4.077l-0.538-0.09
		c-0.287-0.047-0.523-0.325-0.523-0.618c0-0.292,0.238-0.531,0.53-0.531h2.653v1.062v4.254c0,3.834,3.168,5.448,5.92,5.448
		c2.754,0,5.757-2.322,5.757-5.448v-4.254v-1.062h2.653C75.784,15.127,76.023,15.366,76.023,15.658 M62.225,19.788v-3.599h9.553
		v3.599c0,0.985-1.108,4.397-4.776,4.397C63.334,24.185,62.225,20.773,62.225,19.788 M63.285,19.788
		c0,0.258,0.245,1.369,1.062,2.239v-0.74c-0.387-0.669-0.531-1.312-0.531-1.499V17.25h-0.531V19.788z M71.777,15.127h-9.553v-3.715
		c0-2.638,2.139-4.776,4.776-4.776s4.776,2.139,4.776,4.776V15.127z M64.348,8.82c-0.654,0.669-1.062,1.583-1.062,2.591v2.654h0.531
		v-2.654c0-0.692,0.199-1.334,0.531-1.886V8.82z"/>
	<circle fill="none" stroke="#C7C8CA" stroke-width="2" stroke-miterlimit="10" cx="66.364" cy="102.833" r="17.833"/>
	<path fill="#0079AE" d="M76.023,98.765c0,0.292-0.236,0.571-0.523,0.618l-0.537,0.09v4.077c0,4.146-3.186,6.412-5.309,7.097v1.245
		l3.185,1.448v1.878H61.162v-1.878l3.186-1.448v-1.245c-2.123-0.686-5.308-2.951-5.308-7.097v-4.077l-0.538-0.09
		c-0.287-0.047-0.523-0.325-0.523-0.618c0-0.292,0.238-0.531,0.53-0.531h2.653v1.062v4.254c0,3.834,3.168,5.448,5.92,5.448
		c2.754,0,5.757-2.322,5.757-5.448v-4.254v-1.062h2.653C75.784,98.234,76.023,98.473,76.023,98.765 M62.225,102.895v-3.599h9.553
		v3.599c0,0.985-1.108,4.397-4.776,4.397C63.334,107.292,62.225,103.88,62.225,102.895 M63.285,102.895
		c0,0.258,0.245,1.369,1.062,2.239v-0.74c-0.387-0.669-0.531-1.312-0.531-1.499v-2.538h-0.531V102.895z M71.777,98.234h-9.553
		v-3.715c0-2.638,2.139-4.776,4.776-4.776s4.776,2.139,4.776,4.776V98.234z M64.348,91.928c-0.654,0.669-1.062,1.583-1.062,2.591
		v2.654h0.531v-2.654c0-0.692,0.199-1.334,0.531-1.886V91.928z"/>
	<circle fill="none" stroke="#C7C8CA" stroke-width="2" stroke-miterlimit="10" cx="20.028" cy="19.726" r="17.833"/>
	<path fill-rule="evenodd" clip-rule="evenodd" fill="#0079AE" d="M10.9,29.465V10.586c0-0.305,0.249-0.555,0.555-0.555h2.221
		c0.306,0,0.555,0.25,0.555,0.555v8.65l11.609-9.091c0.241-0.187,0.607-0.089,0.607,0.216V29.71c0,0.306-0.366,0.402-0.607,0.215
		L14.23,20.867v8.599c0,0.306-0.249,0.556-0.555,0.556h-2.221C11.149,30.021,10.9,29.771,10.9,29.465"/>
	<circle fill="none" stroke="#C7C8CA" stroke-width="2" stroke-miterlimit="10" cx="66.364" cy="61.541" r="17.833"/>
	<circle fill="none" stroke="#C7C8CA" stroke-width="2" stroke-miterlimit="10" cx="114.427" cy="61.541" r="17.833"/>
	<path fill-rule="evenodd" clip-rule="evenodd" d="M123.555,51.801V70.68c0,0.305-0.249,0.555-0.555,0.555h-2.221
		c-0.307,0-0.556-0.25-0.556-0.555v-8.65l-11.608,9.091c-0.242,0.187-0.607,0.089-0.607-0.216V51.556
		c0-0.306,0.365-0.402,0.607-0.215l11.608,9.059v-8.599c0-0.306,0.249-0.556,0.556-0.556H123
		C123.306,51.245,123.555,51.495,123.555,51.801"/>
	<path d="M76.023,57.473c0,0.292-0.236,0.571-0.523,0.618l-0.537,0.09v4.077c0,4.146-3.186,6.412-5.309,7.097V70.6l3.185,1.448
		v1.878H61.162v-1.878l3.186-1.448v-1.245c-2.123-0.686-5.308-2.951-5.308-7.097v-4.077l-0.538-0.09
		c-0.287-0.047-0.523-0.325-0.523-0.618c0-0.292,0.238-0.531,0.53-0.531h2.653v1.062v4.254c0,3.834,3.168,5.448,5.92,5.448
		c2.754,0,5.757-2.322,5.757-5.448v-4.254v-1.062h2.653C75.784,56.942,76.023,57.181,76.023,57.473 M62.225,61.603v-3.599h9.553
		v3.599c0,0.985-1.108,4.397-4.776,4.397C63.334,66,62.225,62.588,62.225,61.603 M63.285,61.603c0,0.258,0.245,1.369,1.062,2.239
		v-0.74c-0.387-0.669-0.531-1.312-0.531-1.499v-2.538h-0.531V61.603z M71.777,56.942h-9.553v-3.715c0-2.638,2.139-4.776,4.776-4.776
		s4.776,2.139,4.776,4.776V56.942z M64.348,50.635c-0.654,0.669-1.062,1.583-1.062,2.591v2.654h0.531v-2.654
		c0-0.692,0.199-1.334,0.531-1.886V50.635z"/>
	<circle fill="none" stroke="#C7C8CA" stroke-width="2" stroke-miterlimit="10" cx="20.028" cy="61.541" r="17.833"/>
	<path d="M10.9,71.28V52.401c0-0.305,0.249-0.555,0.555-0.555h2.221c0.306,0,0.555,0.25,0.555,0.555v8.65L25.84,51.96
		c0.241-0.187,0.607-0.089,0.607,0.216v19.349c0,0.306-0.366,0.402-0.607,0.215L14.23,62.682v8.599c0,0.306-0.249,0.556-0.555,0.556
		h-2.221C11.149,71.836,10.9,71.586,10.9,71.28"/>
	<line fill="none" stroke="#C7C8CA" stroke-width="2" stroke-miterlimit="10" x1="53.667" y1="89.667" x2="79.5" y2="115.5"/>
	<circle fill="none" stroke="#C7C8CA" stroke-width="2" stroke-miterlimit="10" cx="66.364" cy="144.633" r="17.833"/>
	<path d="M76.023,140.565c0,0.292-0.236,0.571-0.523,0.618l-0.537,0.09v4.077c0,4.146-3.186,6.412-5.309,7.097v1.245l3.185,1.448
		v1.878H61.162v-1.878l3.186-1.448v-1.245c-2.123-0.686-5.308-2.951-5.308-7.097v-4.077l-0.538-0.09
		c-0.287-0.047-0.523-0.325-0.523-0.618c0-0.292,0.238-0.531,0.53-0.531h2.653v1.062v4.254c0,3.834,3.168,5.448,5.92,5.448
		c2.754,0,5.757-2.322,5.757-5.448v-4.254v-1.062h2.653C75.784,140.034,76.023,140.273,76.023,140.565 M62.225,144.695v-3.599h9.553
		v3.599c0,0.985-1.108,4.397-4.776,4.397C63.334,149.092,62.225,145.68,62.225,144.695 M63.285,144.695
		c0,0.258,0.245,1.369,1.062,2.239v-0.74c-0.387-0.669-0.531-1.312-0.531-1.499v-2.538h-0.531V144.695z M71.777,140.034h-9.553
		v-3.715c0-2.638,2.139-4.776,4.776-4.776s4.776,2.139,4.776,4.776V140.034z M64.348,133.728c-0.654,0.669-1.062,1.583-1.062,2.591
		v2.654h0.531v-2.654c0-0.692,0.199-1.334,0.531-1.886V133.728z"/>
	<line fill="none" stroke="#C7C8CA" stroke-width="2" stroke-miterlimit="10" x1="53.667" y1="131.466" x2="79.5" y2="157.3"/>
</g>
<g id="Layer_13">
</g>
</svg>
