<?xml version="1.0" encoding="utf-8"?>
<!-- Generator: Adobe Illustrator 16.0.1, SVG Export Plug-In . SVG Version: 6.00 Build 0)  -->
<!DOCTYPE svg PUBLIC "-//W3C//DTD SVG 1.1//EN" "http://www.w3.org/Graphics/SVG/1.1/DTD/svg11.dtd">
<svg version="1.1" xmlns="http://www.w3.org/2000/svg" xmlns:xlink="http://www.w3.org/1999/xlink" x="0px" y="0px" width="286px"
	 height="354px" viewBox="0 0 286 354" enable-background="new 0 0 286 354" xml:space="preserve">
<symbol  id="Deleted_Symbol" viewBox="-5.5 -8.5 11 17">
	<path d="M-3.5,6.5h-1v-11h1v1h1v1h1v-1h1v-2h1v-2h2v2h-1v2h-1v2h3v1h-1v1h-1v1h-1v1h-1v1h-1v1h-1v1h-1V6.5z"/>
	<g>
		<polygon fill="#FFFFFF" points="5.5,-2.5 5.5,-1.5 4.5,-1.5 4.5,-0.5 3.5,-0.5 3.5,-1.5 0.5,-1.5 0.5,-3.5 1.5,-3.5 1.5,-2.5 		
			"/>
		<polygon fill="#FFFFFF" points="1.5,1.5 1.5,2.5 0.5,2.5 0.5,1.5 		"/>
		<polygon fill="#FFFFFF" points="0.5,2.5 0.5,3.5 -0.5,3.5 -0.5,2.5 		"/>
		<polygon fill="#FFFFFF" points="-1.5,4.5 -1.5,5.5 -2.5,5.5 -2.5,4.5 		"/>
		<polygon fill="#FFFFFF" points="-2.5,5.5 -2.5,6.5 -3.5,6.5 -3.5,5.5 		"/>
		<polygon fill="#FFFFFF" points="-4.5,6.5 -3.5,6.5 -3.5,7.5 -4.5,7.5 -4.5,8.5 -5.5,8.5 -5.5,-6.5 -4.5,-6.5 -4.5,-5.5 -3.5,-5.5 
			-3.5,-4.5 -4.5,-4.5 		"/>
		<polygon fill="#FFFFFF" points="-0.5,3.5 -0.5,4.5 -1.5,4.5 -1.5,3.5 		"/>
		<polygon fill="#FFFFFF" points="-1.5,-3.5 -1.5,-5.5 -0.5,-5.5 -0.5,-3.5 		"/>
		<polygon fill="#FFFFFF" points="-2.5,-2.5 -2.5,-3.5 -1.5,-3.5 -1.5,-2.5 		"/>
		<polygon fill="#FFFFFF" points="-3.5,-4.5 -2.5,-4.5 -2.5,-3.5 -3.5,-3.5 		"/>
		<polygon fill="#FFFFFF" points="3.5,-0.5 3.5,0.5 2.5,0.5 2.5,-0.5 		"/>
		<polygon fill="#FFFFFF" points="2.5,0.5 2.5,1.5 1.5,1.5 1.5,0.5 		"/>
		<polygon fill="#FFFFFF" points="2.5,-5.5 2.5,-3.5 1.5,-3.5 1.5,-5.5 		"/>
		<polygon fill="#FFFFFF" points="0.5,-7.5 0.5,-8.5 3.5,-8.5 3.5,-5.5 2.5,-5.5 2.5,-7.5 		"/>
		<polygon fill="#FFFFFF" points="-0.5,-5.5 -0.5,-7.5 0.5,-7.5 0.5,-5.5 		"/>
	</g>
</symbol>
<pattern  x="-251" width="8.485" height="8.484" patternUnits="userSpaceOnUse" id="cross_hatching" viewBox="9.547 -18.03 8.485 8.484" overflow="visible">
	<g>
		<polygon fill="none" points="9.547,-18.03 18.032,-18.03 18.032,-9.545 9.547,-9.545 		"/>
		<line fill="none" stroke="#000000" stroke-width="3" x1="18.03" y1="-1.061" x2="26.517" y2="-9.545"/>
		<line fill="none" stroke="#000000" stroke-width="3" x1="9.546" y1="-1.061" x2="18.032" y2="-9.545"/>
		<line fill="none" stroke="#000000" stroke-width="3" x1="1.061" y1="-1.061" x2="9.547" y2="-9.545"/>
		<line fill="none" stroke="#000000" stroke-width="3" x1="18.03" y1="-9.545" x2="26.517" y2="-18.03"/>
		<line fill="none" stroke="#000000" stroke-width="3" x1="9.546" y1="-9.545" x2="18.032" y2="-18.03"/>
		<line fill="none" stroke="#000000" stroke-width="3" x1="1.061" y1="-9.545" x2="9.547" y2="-18.03"/>
		<line fill="none" stroke="#000000" stroke-width="3" x1="18.03" y1="-18.029" x2="26.517" y2="-26.514"/>
		<line fill="none" stroke="#000000" stroke-width="3" x1="9.546" y1="-18.029" x2="18.032" y2="-26.514"/>
		<line fill="none" stroke="#000000" stroke-width="3" x1="1.061" y1="-18.029" x2="9.547" y2="-26.514"/>
	</g>
</pattern>
<g id="BACKGROUND">
</g>
<g id="GRAPHICS">
	<circle fill="none" stroke="#C7C8CA" stroke-width="2" stroke-miterlimit="10" cx="141.872" cy="42.866" r="38.417"/>
	<path fill="none" stroke="#C7C8CA" stroke-width="2" stroke-miterlimit="10" d="M283.825,42.866
		c0,21.216-17.2,38.417-38.414,38.417c-21.219,0-38.419-17.201-38.419-38.417c0-21.217,17.2-38.417,38.419-38.417
		C266.625,4.45,283.825,21.649,283.825,42.866z"/>
	<path fill-rule="evenodd" clip-rule="evenodd" fill="#0079AE" d="M265.072,21.884v40.67c0,0.657-0.536,1.196-1.193,1.196h-4.785
		c-0.66,0-1.196-0.539-1.196-1.196V43.919L232.89,63.503c-0.521,0.403-1.308,0.192-1.308-0.464V21.357
		c0-0.659,0.786-0.866,1.308-0.463l25.008,19.514V21.884c0-0.66,0.536-1.197,1.196-1.197h4.785
		C264.536,20.687,265.072,21.225,265.072,21.884"/>
	<path opacity="0.25" d="M162.679,34.103c0,0.63-0.509,1.229-1.127,1.33l-1.158,0.195v8.783c0,8.933-6.862,13.812-11.436,15.289
		v2.683l6.861,3.119v4.045h-25.156v-4.045l6.863-3.119V59.7c-4.574-1.477-11.434-6.356-11.434-15.289v-8.783l-1.158-0.195
		c-0.619-0.101-1.13-0.7-1.13-1.33c0-0.629,0.516-1.143,1.143-1.143h5.716v2.287v9.165c0,8.26,6.826,11.736,12.754,11.736
		c5.933,0,12.402-5.001,12.402-11.736v-9.165V32.96h5.716C162.163,32.96,162.679,33.474,162.679,34.103 M132.952,43v-7.753h20.579
		V43c0,2.123-2.387,9.474-10.289,9.474C135.343,52.473,132.952,45.123,132.952,43 M135.237,43c0,0.556,0.527,2.949,2.289,4.824
		v-1.594c-0.833-1.442-1.144-2.826-1.144-3.23v-5.466h-1.146V43z M153.531,32.96h-20.579v-8.004c0-5.682,4.608-10.289,10.29-10.289
		c5.684,0,10.289,4.607,10.289,10.289V32.96z M137.526,19.374c-1.409,1.441-2.289,3.412-2.289,5.582v5.718h1.146v-5.718
		c0-1.49,0.428-2.874,1.144-4.063V19.374z"/>
	<circle fill="none" stroke="#C7C8CA" stroke-width="2" stroke-miterlimit="10" cx="141.872" cy="221.899" r="38.417"/>
	<path fill="#0079AE" d="M162.679,213.136c0,0.63-0.509,1.229-1.127,1.331l-1.158,0.195v8.783c0,8.933-6.862,13.812-11.436,15.289
		v2.683l6.861,3.118v4.046h-25.156v-4.046l6.863-3.118v-2.683c-4.574-1.477-11.434-6.356-11.434-15.289v-8.783l-1.158-0.195
		c-0.619-0.101-1.13-0.7-1.13-1.331c0-0.629,0.516-1.143,1.143-1.143h5.716v2.287v9.165c0,8.261,6.826,11.737,12.754,11.737
		c5.933,0,12.402-5.002,12.402-11.737v-9.165v-2.287h5.716C162.163,211.993,162.679,212.507,162.679,213.136 M132.952,222.033
		v-7.753h20.579v7.753c0,2.123-2.387,9.473-10.289,9.473C135.343,231.506,132.952,224.156,132.952,222.033 M135.237,222.033
		c0,0.556,0.527,2.949,2.289,4.824v-1.595c-0.833-1.441-1.144-2.825-1.144-3.229v-5.467h-1.146V222.033z M153.531,211.993h-20.579
		v-8.004c0-5.683,4.608-10.29,10.29-10.29c5.684,0,10.289,4.607,10.289,10.29V211.993z M137.526,198.407
		c-1.409,1.441-2.289,3.411-2.289,5.583v5.718h1.146v-5.718c0-1.49,0.428-2.874,1.144-4.063V198.407z"/>
	<circle fill="none" stroke="#C7C8CA" stroke-width="2" stroke-miterlimit="10" cx="42.052" cy="42.866" r="38.417"/>
	<path fill-rule="evenodd" clip-rule="evenodd" fill="#0079AE" d="M22.389,63.848V23.179c0-0.658,0.536-1.197,1.193-1.197h4.785
		c0.658,0,1.196,0.539,1.196,1.197v18.635l25.009-19.585c0.52-0.403,1.308-0.192,1.308,0.465v41.682c0,0.66-0.788,0.865-1.308,0.464
		L29.563,45.324v18.524c0,0.659-0.538,1.197-1.196,1.197h-4.785C22.925,65.045,22.389,64.507,22.389,63.848"/>
	<circle fill="none" stroke="#C7C8CA" stroke-width="2" stroke-miterlimit="10" cx="141.872" cy="132.946" r="38.417"/>
	<path fill="none" stroke="#C7C8CA" stroke-width="2" stroke-miterlimit="10" d="M283.825,132.946
		c0,21.216-17.2,38.417-38.414,38.417c-21.219,0-38.419-17.2-38.419-38.417s17.2-38.417,38.419-38.417
		C266.625,94.529,283.825,111.729,283.825,132.946z"/>
	<path fill-rule="evenodd" clip-rule="evenodd" d="M265.072,111.963v40.67c0,0.658-0.536,1.196-1.193,1.196h-4.785
		c-0.66,0-1.196-0.539-1.196-1.196v-18.635l-25.008,19.585c-0.521,0.402-1.308,0.191-1.308-0.465v-41.682
		c0-0.66,0.786-0.866,1.308-0.464l25.008,19.514v-18.524c0-0.659,0.536-1.196,1.196-1.196h4.785
		C264.536,110.767,265.072,111.304,265.072,111.963"/>
	<path d="M162.679,124.183c0,0.63-0.509,1.23-1.127,1.331l-1.158,0.194v8.784c0,8.932-6.862,13.812-11.436,15.289v2.682l6.861,3.12
		v4.045h-25.156v-4.045l6.863-3.12v-2.682c-4.574-1.477-11.434-6.356-11.434-15.289v-8.784l-1.158-0.194
		c-0.619-0.101-1.13-0.701-1.13-1.331c0-0.629,0.516-1.144,1.143-1.144h5.716v2.287v9.165c0,8.26,6.826,11.736,12.754,11.736
		c5.933,0,12.402-5.001,12.402-11.736v-9.165v-2.287h5.716C162.163,123.039,162.679,123.554,162.679,124.183 M132.952,133.08v-7.753
		h20.579v7.753c0,2.122-2.387,9.473-10.289,9.473C135.343,142.553,132.952,135.202,132.952,133.08 M135.237,133.08
		c0,0.555,0.527,2.948,2.289,4.824v-1.595c-0.833-1.441-1.144-2.825-1.144-3.229v-5.467h-1.146V133.08z M153.531,123.039h-20.579
		v-8.004c0-5.682,4.608-10.289,10.29-10.289c5.684,0,10.289,4.607,10.289,10.289V123.039z M137.526,109.453
		c-1.409,1.441-2.289,3.412-2.289,5.582v5.718h1.146v-5.718c0-1.491,0.428-2.874,1.144-4.063V109.453z"/>
	<circle fill="none" stroke="#C7C8CA" stroke-width="2" stroke-miterlimit="10" cx="42.052" cy="132.946" r="38.417"/>
	<path d="M22.389,153.927v-40.669c0-0.657,0.536-1.196,1.193-1.196h4.785c0.658,0,1.196,0.539,1.196,1.196v18.635l25.009-19.585
		c0.52-0.403,1.308-0.192,1.308,0.465v41.682c0,0.659-0.788,0.865-1.308,0.464l-25.009-19.515v18.524
		c0,0.66-0.538,1.197-1.196,1.197h-4.785C22.925,155.125,22.389,154.587,22.389,153.927"/>
	
		<line fill="none" stroke="#C7C8CA" stroke-width="2" stroke-miterlimit="10" x1="114.519" y1="193.536" x2="170.168" y2="249.187"/>
	<circle fill="none" stroke="#C7C8CA" stroke-width="2" stroke-miterlimit="10" cx="141.872" cy="311.946" r="38.417"/>
	<path d="M162.679,303.183c0,0.63-0.509,1.229-1.127,1.33l-1.158,0.195v8.783c0,8.933-6.862,13.812-11.436,15.289v2.683l6.861,3.119
		v4.045h-25.156v-4.045l6.863-3.119v-2.683c-4.574-1.477-11.434-6.356-11.434-15.289v-8.783l-1.158-0.195
		c-0.619-0.101-1.13-0.7-1.13-1.33c0-0.629,0.516-1.143,1.143-1.143h5.716v2.287v9.165c0,8.26,6.826,11.737,12.754,11.737
		c5.933,0,12.402-5.002,12.402-11.737v-9.165v-2.287h5.716C162.163,302.04,162.679,302.554,162.679,303.183 M132.952,312.08v-7.753
		h20.579v7.753c0,2.123-2.387,9.473-10.289,9.473C135.343,321.553,132.952,314.203,132.952,312.08 M135.237,312.08
		c0,0.556,0.527,2.949,2.289,4.824v-1.594c-0.833-1.441-1.144-2.826-1.144-3.23v-5.466h-1.146V312.08z M153.531,302.04h-20.579
		v-8.004c0-5.681,4.608-10.289,10.29-10.289c5.684,0,10.289,4.608,10.289,10.289V302.04z M137.526,288.454
		c-1.409,1.44-2.289,3.41-2.289,5.582v5.718h1.146v-5.718c0-1.49,0.428-2.874,1.144-4.063V288.454z"/>
	
		<line fill="none" stroke="#C7C8CA" stroke-width="2" stroke-miterlimit="10" x1="114.519" y1="283.583" x2="170.168" y2="339.234"/>
</g>
<g id="Layer_13">
</g>
</svg>
