<?xml version="1.0" encoding="utf-8"?>
<!-- Generator: Adobe Illustrator 16.0.1, SVG Export Plug-In . SVG Version: 6.00 Build 0)  -->
<!DOCTYPE svg PUBLIC "-//W3C//DTD SVG 1.1//EN" "http://www.w3.org/Graphics/SVG/1.1/DTD/svg11.dtd">
<svg version="1.1" xmlns="http://www.w3.org/2000/svg" xmlns:xlink="http://www.w3.org/1999/xlink" x="0px" y="0px" width="204px"
	 height="249px" viewBox="0 0 204 249" enable-background="new 0 0 204 249" xml:space="preserve">
<symbol  id="Deleted_Symbol" viewBox="-5.5 -8.5 11 17">
	<path d="M-3.5,6.5h-1v-11h1v1h1v1h1v-1h1v-2h1v-2h2v2h-1v2h-1v2h3v1h-1v1h-1v1h-1v1h-1v1h-1v1h-1v1h-1V6.5z"/>
	<g>
		<polygon fill="#FFFFFF" points="5.5,-2.5 5.5,-1.5 4.5,-1.5 4.5,-0.5 3.5,-0.5 3.5,-1.5 0.5,-1.5 0.5,-3.5 1.5,-3.5 1.5,-2.5 		
			"/>
		<polygon fill="#FFFFFF" points="1.5,1.5 1.5,2.5 0.5,2.5 0.5,1.5 		"/>
		<polygon fill="#FFFFFF" points="0.5,2.5 0.5,3.5 -0.5,3.5 -0.5,2.5 		"/>
		<polygon fill="#FFFFFF" points="-1.5,4.5 -1.5,5.5 -2.5,5.5 -2.5,4.5 		"/>
		<polygon fill="#FFFFFF" points="-2.5,5.5 -2.5,6.5 -3.5,6.5 -3.5,5.5 		"/>
		<polygon fill="#FFFFFF" points="-4.5,6.5 -3.5,6.5 -3.5,7.5 -4.5,7.5 -4.5,8.5 -5.5,8.5 -5.5,-6.5 -4.5,-6.5 -4.5,-5.5 -3.5,-5.5 
			-3.5,-4.5 -4.5,-4.5 		"/>
		<polygon fill="#FFFFFF" points="-0.5,3.5 -0.5,4.5 -1.5,4.5 -1.5,3.5 		"/>
		<polygon fill="#FFFFFF" points="-1.5,-3.5 -1.5,-5.5 -0.5,-5.5 -0.5,-3.5 		"/>
		<polygon fill="#FFFFFF" points="-2.5,-2.5 -2.5,-3.5 -1.5,-3.5 -1.5,-2.5 		"/>
		<polygon fill="#FFFFFF" points="-3.5,-4.5 -2.5,-4.5 -2.5,-3.5 -3.5,-3.5 		"/>
		<polygon fill="#FFFFFF" points="3.5,-0.5 3.5,0.5 2.5,0.5 2.5,-0.5 		"/>
		<polygon fill="#FFFFFF" points="2.5,0.5 2.5,1.5 1.5,1.5 1.5,0.5 		"/>
		<polygon fill="#FFFFFF" points="2.5,-5.5 2.5,-3.5 1.5,-3.5 1.5,-5.5 		"/>
		<polygon fill="#FFFFFF" points="0.5,-7.5 0.5,-8.5 3.5,-8.5 3.5,-5.5 2.5,-5.5 2.5,-7.5 		"/>
		<polygon fill="#FFFFFF" points="-0.5,-5.5 -0.5,-7.5 0.5,-7.5 0.5,-5.5 		"/>
	</g>
</symbol>
<pattern  x="-292" y="10" width="8.485" height="8.484" patternUnits="userSpaceOnUse" id="cross_hatching" viewBox="9.547 -18.03 8.485 8.484" overflow="visible">
	<g>
		<polygon fill="none" points="9.547,-18.03 18.032,-18.03 18.032,-9.545 9.547,-9.545 		"/>
		<line fill="none" stroke="#000000" stroke-width="3" x1="18.03" y1="-1.061" x2="26.517" y2="-9.545"/>
		<line fill="none" stroke="#000000" stroke-width="3" x1="9.546" y1="-1.061" x2="18.032" y2="-9.545"/>
		<line fill="none" stroke="#000000" stroke-width="3" x1="1.061" y1="-1.061" x2="9.547" y2="-9.545"/>
		<line fill="none" stroke="#000000" stroke-width="3" x1="18.03" y1="-9.545" x2="26.517" y2="-18.03"/>
		<line fill="none" stroke="#000000" stroke-width="3" x1="9.546" y1="-9.545" x2="18.032" y2="-18.03"/>
		<line fill="none" stroke="#000000" stroke-width="3" x1="1.061" y1="-9.545" x2="9.547" y2="-18.03"/>
		<line fill="none" stroke="#000000" stroke-width="3" x1="18.03" y1="-18.029" x2="26.517" y2="-26.514"/>
		<line fill="none" stroke="#000000" stroke-width="3" x1="9.546" y1="-18.029" x2="18.032" y2="-26.514"/>
		<line fill="none" stroke="#000000" stroke-width="3" x1="1.061" y1="-18.029" x2="9.547" y2="-26.514"/>
	</g>
</pattern>
<g id="BACKGROUND">
</g>
<g id="GRAPHICS">
	<circle fill="none" stroke="#C7C8CA" stroke-width="2" stroke-miterlimit="10" cx="101.905" cy="29.872" r="27.422"/>
	<circle fill="none" stroke="#C7C8CA" stroke-width="2" stroke-miterlimit="10" cx="175.811" cy="29.872" r="27.422"/>
	<path fill-rule="evenodd" clip-rule="evenodd" fill="#0079AE" d="M189.847,14.895v29.03c0,0.469-0.383,0.854-0.853,0.854h-3.415
		c-0.472,0-0.854-0.384-0.854-0.854V30.623l-17.851,13.979c-0.372,0.288-0.934,0.137-0.934-0.332V14.519
		c0-0.471,0.562-0.618,0.934-0.331l17.851,13.929V14.895c0-0.471,0.383-0.854,0.854-0.854h3.415
		C189.464,14.04,189.847,14.424,189.847,14.895"/>
	<path fill="#0079AE" d="M116.758,23.616c0,0.45-0.363,0.878-0.805,0.95l-0.826,0.139v6.27c0,6.376-4.898,9.859-8.163,10.913v1.915
		l4.897,2.227v2.888H93.905v-2.888l4.898-2.227v-1.915c-3.265-1.054-8.161-4.537-8.161-10.913v-6.27l-0.827-0.139
		c-0.441-0.072-0.806-0.5-0.806-0.95c0-0.449,0.367-0.816,0.815-0.816h4.08v1.632v6.542c0,5.896,4.872,8.377,9.104,8.377
		c4.234,0,8.853-3.57,8.853-8.377v-6.542V22.8h4.08C116.39,22.8,116.758,23.167,116.758,23.616 M95.539,29.967v-5.534h14.689v5.534
		c0,1.515-1.704,6.762-7.345,6.762C97.245,36.729,95.539,31.482,95.539,29.967 M97.17,29.967c0,0.396,0.377,2.104,1.634,3.443
		v-1.138c-0.595-1.029-0.816-2.017-0.816-2.305v-3.902H97.17V29.967z M110.229,22.8H95.539v-5.713c0-4.056,3.289-7.344,7.345-7.344
		c4.057,0,7.345,3.289,7.345,7.344V22.8z M98.804,13.103c-1.006,1.029-1.634,2.435-1.634,3.984v4.082h0.817v-4.082
		c0-1.063,0.306-2.051,0.816-2.9V13.103z"/>
	<circle fill="none" stroke="#C7C8CA" stroke-width="2" stroke-miterlimit="10" cx="101.905" cy="157.666" r="27.422"/>
	<path fill="#0079AE" d="M116.758,151.411c0,0.45-0.363,0.877-0.805,0.95l-0.826,0.139v6.27c0,6.376-4.898,9.859-8.163,10.914v1.915
		l4.897,2.226v2.888H93.905v-2.888l4.898-2.226v-1.915c-3.265-1.054-8.161-4.538-8.161-10.914v-6.27l-0.827-0.139
		c-0.441-0.072-0.806-0.5-0.806-0.95c0-0.449,0.367-0.816,0.815-0.816h4.08v1.632v6.542c0,5.896,4.872,8.378,9.104,8.378
		c4.234,0,8.853-3.57,8.853-8.378v-6.542v-1.632h4.08C116.39,150.594,116.758,150.961,116.758,151.411 M95.539,157.761v-5.535
		h14.689v5.535c0,1.515-1.704,6.762-7.345,6.762C97.245,164.523,95.539,159.276,95.539,157.761 M97.17,157.761
		c0,0.396,0.377,2.104,1.634,3.443v-1.139c-0.595-1.028-0.816-2.017-0.816-2.305v-3.902H97.17V157.761z M110.229,150.594H95.539
		v-5.713c0-4.056,3.289-7.345,7.345-7.345c4.057,0,7.345,3.289,7.345,7.345V150.594z M98.804,140.896
		c-1.006,1.029-1.634,2.435-1.634,3.985v4.082h0.817v-4.082c0-1.064,0.306-2.051,0.816-2.9V140.896z"/>
	<circle fill="none" stroke="#C7C8CA" stroke-width="2" stroke-miterlimit="10" cx="30.654" cy="29.872" r="27.422"/>
	<path fill-rule="evenodd" clip-rule="evenodd" fill="#0079AE" d="M16.618,44.848v-29.03c0-0.469,0.383-0.854,0.853-0.854h3.415
		c0.47,0,0.854,0.385,0.854,0.854V29.12l17.852-13.98c0.371-0.288,0.934-0.137,0.934,0.332v29.752c0,0.471-0.562,0.618-0.934,0.331
		l-17.852-13.93v13.222c0,0.471-0.384,0.854-0.854,0.854h-3.415C17.001,45.703,16.618,45.319,16.618,44.848"/>
	<circle fill="none" stroke="#C7C8CA" stroke-width="2" stroke-miterlimit="10" cx="101.905" cy="94.17" r="27.422"/>
	<circle fill="none" stroke="#C7C8CA" stroke-width="2" stroke-miterlimit="10" cx="175.811" cy="94.17" r="27.422"/>
	<path fill-rule="evenodd" clip-rule="evenodd" d="M189.847,79.193v29.03c0,0.469-0.383,0.854-0.853,0.854h-3.415
		c-0.472,0-0.854-0.384-0.854-0.854V94.922l-17.851,13.979c-0.372,0.288-0.934,0.137-0.934-0.332V78.817
		c0-0.471,0.562-0.618,0.934-0.331l17.851,13.929V79.193c0-0.471,0.383-0.854,0.854-0.854h3.415
		C189.464,78.339,189.847,78.723,189.847,79.193"/>
	<path d="M116.758,87.915c0,0.45-0.363,0.878-0.805,0.95l-0.826,0.139v6.27c0,6.376-4.898,9.859-8.163,10.913v1.915l4.897,2.227
		v2.888H93.905v-2.888l4.898-2.227v-1.915c-3.265-1.054-8.161-4.537-8.161-10.913v-6.27l-0.827-0.139
		c-0.441-0.072-0.806-0.5-0.806-0.95c0-0.449,0.367-0.816,0.815-0.816h4.08v1.632v6.542c0,5.896,4.872,8.377,9.104,8.377
		c4.234,0,8.853-3.57,8.853-8.377v-6.542v-1.632h4.08C116.39,87.099,116.758,87.466,116.758,87.915 M95.539,94.266v-5.534h14.689
		v5.534c0,1.515-1.704,6.762-7.345,6.762C97.245,101.028,95.539,95.781,95.539,94.266 M97.17,94.266
		c0,0.396,0.377,2.104,1.634,3.443v-1.138c-0.595-1.029-0.816-2.017-0.816-2.305v-3.902H97.17V94.266z M110.229,87.099H95.539
		v-5.713c0-4.056,3.289-7.344,7.345-7.344c4.057,0,7.345,3.289,7.345,7.344V87.099z M98.804,77.401
		c-1.006,1.028-1.634,2.435-1.634,3.984v4.082h0.817v-4.082c0-1.064,0.306-2.051,0.816-2.9V77.401z"/>
	<circle fill="none" stroke="#C7C8CA" stroke-width="2" stroke-miterlimit="10" cx="30.654" cy="94.17" r="27.422"/>
	<path d="M16.618,109.147v-29.03c0-0.469,0.383-0.854,0.853-0.854h3.415c0.47,0,0.854,0.385,0.854,0.854v13.302l17.852-13.98
		c0.371-0.288,0.934-0.137,0.934,0.332v29.752c0,0.471-0.562,0.618-0.934,0.331l-17.852-13.93v13.222
		c0,0.471-0.384,0.854-0.854,0.854h-3.415C17.001,110.001,16.618,109.618,16.618,109.147"/>
	<line fill="none" stroke="#C7C8CA" stroke-width="2" stroke-miterlimit="10" x1="82.381" y1="137.419" x2="122.104" y2="177.144"/>
	<circle fill="none" stroke="#C7C8CA" stroke-width="2" stroke-miterlimit="10" cx="101.905" cy="221.941" r="27.422"/>
	<path d="M116.758,215.686c0,0.45-0.363,0.878-0.805,0.95l-0.826,0.139v6.27c0,6.376-4.898,9.859-8.163,10.913v1.915l4.897,2.226
		v2.888H93.905v-2.888l4.898-2.226v-1.915c-3.265-1.054-8.161-4.537-8.161-10.913v-6.27l-0.827-0.139
		c-0.441-0.072-0.806-0.5-0.806-0.95c0-0.449,0.367-0.816,0.815-0.816h4.08v1.632v6.542c0,5.896,4.872,8.377,9.104,8.377
		c4.234,0,8.853-3.57,8.853-8.377v-6.542v-1.632h4.08C116.39,214.87,116.758,215.237,116.758,215.686 M95.539,222.037v-5.534h14.689
		v5.534c0,1.515-1.704,6.762-7.345,6.762C97.245,228.798,95.539,223.552,95.539,222.037 M97.17,222.037
		c0,0.396,0.377,2.104,1.634,3.443v-1.138c-0.595-1.029-0.816-2.017-0.816-2.305v-3.902H97.17V222.037z M110.229,214.87H95.539
		v-5.713c0-4.056,3.289-7.345,7.345-7.345c4.057,0,7.345,3.289,7.345,7.345V214.87z M98.804,205.172
		c-1.006,1.028-1.634,2.435-1.634,3.984v4.082h0.817v-4.082c0-1.064,0.306-2.051,0.816-2.9V205.172z"/>
	<line fill="none" stroke="#C7C8CA" stroke-width="2" stroke-miterlimit="10" x1="82.381" y1="201.695" x2="122.104" y2="241.419"/>
</g>
<g id="Layer_13">
</g>
</svg>
