<?xml version="1.0" encoding="utf-8"?>
<!-- Generator: Adobe Illustrator 16.0.1, SVG Export Plug-In . SVG Version: 6.00 Build 0)  -->
<!DOCTYPE svg PUBLIC "-//W3C//DTD SVG 1.1//EN" "http://www.w3.org/Graphics/SVG/1.1/DTD/svg11.dtd">
<svg version="1.1" xmlns="http://www.w3.org/2000/svg" xmlns:xlink="http://www.w3.org/1999/xlink" x="0px" y="0px" width="31.25px"
	 height="62.5px" viewBox="0 0 31.25 62.5" enable-background="new 0 0 31.25 62.5" xml:space="preserve">
<symbol  id="Deleted_Symbol" viewBox="-5.5 -8.5 11 17">
	<path d="M-3.5,6.5h-1v-11h1v1h1v1h1v-1h1v-2h1v-2h2v2h-1v2h-1v2h3v1h-1v1h-1v1h-1v1h-1v1h-1v1h-1v1h-1V6.5z"/>
	<g>
		<polygon fill="#FFFFFF" points="5.5,-2.5 5.5,-1.5 4.5,-1.5 4.5,-0.5 3.5,-0.5 3.5,-1.5 0.5,-1.5 0.5,-3.5 1.5,-3.5 1.5,-2.5 		
			"/>
		<polygon fill="#FFFFFF" points="1.5,1.5 1.5,2.5 0.5,2.5 0.5,1.5 		"/>
		<polygon fill="#FFFFFF" points="0.5,2.5 0.5,3.5 -0.5,3.5 -0.5,2.5 		"/>
		<polygon fill="#FFFFFF" points="-1.5,4.5 -1.5,5.5 -2.5,5.5 -2.5,4.5 		"/>
		<polygon fill="#FFFFFF" points="-2.5,5.5 -2.5,6.5 -3.5,6.5 -3.5,5.5 		"/>
		<polygon fill="#FFFFFF" points="-4.5,6.5 -3.5,6.5 -3.5,7.5 -4.5,7.5 -4.5,8.5 -5.5,8.5 -5.5,-6.5 -4.5,-6.5 -4.5,-5.5 -3.5,-5.5 
			-3.5,-4.5 -4.5,-4.5 		"/>
		<polygon fill="#FFFFFF" points="-0.5,3.5 -0.5,4.5 -1.5,4.5 -1.5,3.5 		"/>
		<polygon fill="#FFFFFF" points="-1.5,-3.5 -1.5,-5.5 -0.5,-5.5 -0.5,-3.5 		"/>
		<polygon fill="#FFFFFF" points="-2.5,-2.5 -2.5,-3.5 -1.5,-3.5 -1.5,-2.5 		"/>
		<polygon fill="#FFFFFF" points="-3.5,-4.5 -2.5,-4.5 -2.5,-3.5 -3.5,-3.5 		"/>
		<polygon fill="#FFFFFF" points="3.5,-0.5 3.5,0.5 2.5,0.5 2.5,-0.5 		"/>
		<polygon fill="#FFFFFF" points="2.5,0.5 2.5,1.5 1.5,1.5 1.5,0.5 		"/>
		<polygon fill="#FFFFFF" points="2.5,-5.5 2.5,-3.5 1.5,-3.5 1.5,-5.5 		"/>
		<polygon fill="#FFFFFF" points="0.5,-7.5 0.5,-8.5 3.5,-8.5 3.5,-5.5 2.5,-5.5 2.5,-7.5 		"/>
		<polygon fill="#FFFFFF" points="-0.5,-5.5 -0.5,-7.5 0.5,-7.5 0.5,-5.5 		"/>
	</g>
</symbol>
<pattern  x="-782.699" y="-164.773" width="8.485" height="8.484" patternUnits="userSpaceOnUse" id="cross_hatching" viewBox="9.547 -18.03 8.485 8.484" overflow="visible">
	<g>
		<polygon fill="none" points="9.547,-18.03 18.032,-18.03 18.032,-9.545 9.547,-9.545 		"/>
		<line fill="none" stroke="#000000" stroke-width="3" x1="18.03" y1="-1.061" x2="26.517" y2="-9.545"/>
		<line fill="none" stroke="#000000" stroke-width="3" x1="9.546" y1="-1.061" x2="18.032" y2="-9.545"/>
		<line fill="none" stroke="#000000" stroke-width="3" x1="1.061" y1="-1.061" x2="9.547" y2="-9.545"/>
		<line fill="none" stroke="#000000" stroke-width="3" x1="18.03" y1="-9.545" x2="26.517" y2="-18.03"/>
		<line fill="none" stroke="#000000" stroke-width="3" x1="9.546" y1="-9.545" x2="18.032" y2="-18.03"/>
		<line fill="none" stroke="#000000" stroke-width="3" x1="1.061" y1="-9.545" x2="9.547" y2="-18.03"/>
		<line fill="none" stroke="#000000" stroke-width="3" x1="18.03" y1="-18.029" x2="26.517" y2="-26.514"/>
		<line fill="none" stroke="#000000" stroke-width="3" x1="9.546" y1="-18.029" x2="18.032" y2="-26.514"/>
		<line fill="none" stroke="#000000" stroke-width="3" x1="1.061" y1="-18.029" x2="9.547" y2="-26.514"/>
	</g>
</pattern>
<g id="BACKGROUND">
</g>
<g id="GRAPHICS">
	<circle opacity="0.3" fill="none" stroke="#000000" stroke-width="2" stroke-miterlimit="10" cx="15.602" cy="15.801" r="14"/>
	<path fill="#C7C8CA" d="M18.629,17.022l4.793,4.388c0.154,0.138,0.158,0.37,0.014,0.517l-2.615,2.614
		c-0.146,0.146-0.379,0.14-0.518-0.013l-4.305-4.747L18.629,17.022z M9.24,12.3c0.207-0.01,0.495,0.101,0.643,0.246l2.236,2.207
		l1.432-1.341l-2.279-2.25c-0.148-0.144-0.26-0.431-0.252-0.638l0.018-0.386c0.01-0.207-0.123-0.468-0.297-0.58L8.621,8.184
		c-0.172-0.113-0.434-0.085-0.58,0.061L6.969,9.316c-0.146,0.146-0.174,0.407-0.062,0.58l1.368,2.121
		c0.111,0.173,0.373,0.308,0.58,0.298L9.24,12.3z M24.391,11.187l-3.604,1.815l-2.076-3.327l3.713-1.983
		c-1.442-1.027-2.987-0.916-4.393-0.125c-1.842,1.037-2.653,3.182-2.023,5.107L7.411,21.27c-0.29,0.29-0.29,0.765,0,1.055
		l1.583,1.583c0.29,0.29,0.766,0.29,1.056,0l1.056-1.056l7.493-7.494c1.146,0.408,2.464,0.319,3.628-0.334
		C23.631,14.235,24.52,12.956,24.391,11.187"/>
	<circle opacity="0.3" fill="none" stroke="#000000" stroke-width="2" stroke-miterlimit="10" cx="15.602" cy="46.551" r="14"/>
	<path d="M18.629,47.772l4.793,4.388c0.154,0.138,0.158,0.37,0.014,0.517l-2.615,2.614c-0.146,0.146-0.379,0.14-0.518-0.013
		l-4.305-4.747L18.629,47.772z M9.24,43.05c0.207-0.01,0.495,0.101,0.643,0.246l2.236,2.207l1.432-1.341l-2.279-2.25
		c-0.148-0.144-0.26-0.431-0.252-0.638l0.018-0.386c0.01-0.207-0.123-0.468-0.297-0.58l-2.119-1.374
		c-0.172-0.113-0.434-0.085-0.58,0.061l-1.072,1.072c-0.146,0.146-0.174,0.407-0.062,0.58l1.368,2.121
		c0.111,0.173,0.373,0.308,0.58,0.298L9.24,43.05z M24.391,41.937l-3.604,1.815l-2.076-3.327l3.713-1.983
		c-1.442-1.027-2.987-0.916-4.393-0.125c-1.842,1.037-2.653,3.182-2.023,5.107L7.411,52.02c-0.29,0.29-0.29,0.765,0,1.055
		l1.583,1.583c0.29,0.29,0.766,0.29,1.056,0l1.056-1.056l7.493-7.494c1.146,0.408,2.464,0.319,3.628-0.334
		C23.631,44.985,24.52,43.706,24.391,41.937"/>
</g>
<g id="Layer_13">
</g>
</svg>
